<svg xmlns="http://www.w3.org/2000/svg" viewBox="0 0 3389.6 2796.36" shape-rendering="geometricPrecision" text-rendering="geometricPrecision" image-rendering="optimizeQuality" fill-rule="evenodd" clip-rule="evenodd"><path d="M348.62 2131.54l8.56-1515.08H186.1v1927.56c235.04-60.59 470.74-99.34 708.26-100.84 219.38-1.39 438.73 29.14 658.36 103.63-136.61-110.75-288.95-191.87-451.3-244.84-204.65-66.76-425.98-88.95-652.55-69.52-51.17 4.2-96.08-33.86-100.3-85.03-.44-5.37-.41-10.68.05-15.87zM2858.45 537.38a94.284 94.284 0 010-27.92V202.55c-215.2-20.35-436.88 3.22-630.53 76.69-180.99 68.66-337.12 181.4-438.6 343.1V2369.5c157.89-105.44 319.15-191.94 484.88-251.1 188.92-67.43 383.2-99.26 584.25-83.29V537.38zm186.07-106.99h252.09c51.37 0 93.03 41.67 93.03 93.03v2142.32c0 51.37-41.66 93.03-93.03 93.03-10.5 0-20.6-1.74-30.01-4.94-259.42-74.28-516.96-123.72-772-125.33-248.7-1.57-497.48 42.12-746.94 152.35-15.55 10.28-34 15.74-52.83 15.43-18.83.3-37.27-5.15-52.84-15.43-249.45-110.24-498.23-153.92-746.93-152.35-255.04 1.61-512.58 51.04-772.01 125.33a93.12 93.12 0 01-30.01 4.94c-51.37 0-93.03-41.66-93.03-93.03V523.42c0-51.36 41.66-93.03 93.03-93.03H358.2l1.76-310.57c.16-44.59 31.8-81.68 73.79-90.38l-.03-.11c244.8-51.11 541.94-38.21 802.78 61.64 180.15 68.97 343.74 179.1 463.16 337.81 120.61-148 281.71-254.52 462.83-323.24 247.76-94 533.55-116.58 802.39-77.31 46.25 6.76 79.53 46.52 79.48 91.94h.12v310.21zM1879.39 2532.97c205.45-64.45 410.68-91.09 615.93-89.79 237.51 1.5 473.21 40.24 708.25 100.84V616.46h-159.06v1523.32c0 51.37-41.67 93.03-93.04 93.03-7.42 0-14.64-.88-21.56-2.51-203.54-32.09-400.81-5.42-593.21 63.25-154.98 55.33-307.21 137.99-457.32 239.42zm-276.13-181.34V619.57c-97.48-171.73-254.93-286.78-432.86-354.91-201.57-77.17-428.09-94.67-625.52-66.48l-10.42 1842.8c215.35-7.69 426.18 19.72 624.38 84.37 157.85 51.49 307.36 126.56 444.42 226.27z" fill-rule="nonzero"/></svg>