<svg xmlns="http://www.w3.org/2000/svg" viewBox="0 0 1333.34 1083.23" shape-rendering="geometricPrecision" text-rendering="geometricPrecision" image-rendering="optimizeQuality" fill-rule="evenodd" clip-rule="evenodd"><path d="M95.35 184.86H206.8v898.37H95.35C42.9 1083.23 0 1040.32 0 987.87V280.21c0-52.45 42.91-95.36 95.35-95.36zM567.91 0h189.77C816.71 0 865 48.3 865 107.33v57.26h-68.38v-57.52c0-20.68-16.92-37.6-37.6-37.6H566.57c-20.68 0-37.6 16.93-37.6 37.6v57.51h-68.38v-57.26c0-59.03 48.3-107.33 107.33-107.33zM263.49 184.86h793.69v898.37H263.49V184.86zm850.38 0h124.1c52.45 0 95.36 42.91 95.36 95.36v707.66c0 52.45-42.91 95.36-95.36 95.36h-124.1V184.87z"/></svg>